<svg height="11" width="16.9" xmlns="http://www.w3.org/2000/svg"><g fill-rule="evenodd"><path d="M11 5.5q0 2.1 1.3 2.1.4 0 .8-.5l.3-.7H15v.3l-1.2 1.8q-.6.5-1.6.5-2.8 0-2.8-3.6 0-1.3.6-2.2.7-1.2 2.3-1.2 1.1 0 1.7.5.7.6 1 2h-1.6l-.5-.9-.7-.1q-.7 0-1 .8l-.3 1.3M5.8 3.4q-1.1 0-1.1 2 0 2.1 1.3 2.1l1-1.1h1.6q-.5 1.4-1.1 2-.7.6-1.8.6-1.5 0-2.3-1.3-.5-1-.5-2.3Q3 2 5.8 2q1 0 1.8.5.9.6.9 1.5v.5H7q0-1-1.2-1" fill="#fff"/><path d="M16.9 3v5q-.1 1.6-.8 2.1-.5.5-1.6.6l-1.8.2-4.1.1q-7.4 0-8-1.3l-.3-1-.3-.9V3.1l.3-.8Q.1.8 1.6.3L4.3 0H13l1.8.1q1.2.1 1.5.8.6.7.7 2.1m-11.1.5q1.2 0 1.2 1h1.5V4q0-.9-.9-1.5Q6.8 2 5.8 2 3 2 3 5.4q0 1.3.5 2.3Q4.3 9 5.8 9q1.1 0 1.8-.6.6-.6 1-2H7.2L6 7.6q-1.3 0-1.3-2 0-2.1 1.1-2.1m6.5 0 .6.1.5 1H15q-.3-1.4-1-2-.6-.6-1.8-.6-1.5 0-2.2 1.2-.6.9-.6 2.2Q9.4 9 12.3 9q1 0 1.6-.5L15 6.7v-.3h-1.6l-.3.7q-.4.5-.8.5-1.4 0-1.4-2l.3-1.3q.3-.8 1-.8" fill="url(#a)"/></g><defs><linearGradient gradientTransform="matrix(0 .0073 -.0067 0 8.4 5.5)" gradientUnits="userSpaceOnUse" id="a" spreadMethod="pad" x1="-819.2" x2="819.2"><stop offset=".3" stop-color="#f82f2f"/><stop offset="1" stop-color="#ba1010"/></linearGradient></defs></svg>