<svg height="11" width="16.9" xmlns="http://www.w3.org/2000/svg"><g fill-rule="evenodd"><path d="M16.9 3v5q-.1 1.6-.8 2.1-.5.5-1.6.6l-1.8.2-4.1.1q-7.4 0-8-1.3l-.3-1-.3-.9V3.1l.3-.8Q.1.8 1.6.3L4.3 0H13l1.8.1q1.2.1 1.5.8.6.7.7 2.1M8.5 4q0-.9-.9-1.5Q6.8 2 5.8 2 3 2 3 5.4q0 1.3.5 2.3Q4.3 9 5.8 9q1.1 0 1.8-.6.6-.6 1-2H7.2L6 7.6q-1.3 0-1.3-2 0-2.1 1.1-2.1 1.2 0 1.2 1h1.5V4M15 6.7v-.3h-1.6l-.3.7q-.4.5-.8.5-1.4 0-1.4-2l.3-1.3q.3-.8 1-.8l.8.1.4 1H15q-.3-1.4-1-2-.6-.6-1.8-.6-1.5 0-2.2 1.2-.6.9-.6 2.2Q9.4 9 12.3 9q1 0 1.6-.5L15 6.7" fill="gray"/><path d="m15 6.7-1.2 1.8q-.6.5-1.6.5-2.8 0-2.8-3.6 0-1.3.6-2.2.7-1.2 2.3-1.2 1.1 0 1.7.5.7.6 1 2h-1.6l-.5-.9-.7-.1q-.7 0-1 .8l-.3 1.3q0 2 1.3 2 .5 0 .9-.5l.3-.7H15v.3M8.5 3.9v.6H7q0-1-1.2-1-1.1 0-1.1 2 0 2.1 1.3 2.1l1-1.2h1.6q-.5 1.4-1.1 2-.7.6-1.8.6-1.5 0-2.3-1.3-.5-1-.5-2.3Q3 2 5.8 2q1 0 1.8.5.9.6.9 1.5" fill="#fff"/></g></svg>