<?xml version="1.0" encoding="UTF-8" standalone="no"?>
<svg xmlns:xlink="http://www.w3.org/1999/xlink" height="11.0px" width="16.95px" xmlns="http://www.w3.org/2000/svg">
  <g transform="matrix(1.0, 0.0, 0.0, 1.0, 0.0, 0.0)">
    <path d="M16.9 3.0 L16.95 5.5 16.9 7.95 Q16.75 9.55 16.05 10.1 15.6 10.55 14.5 10.7 L12.75 10.85 8.55 11.0 Q1.2 11.0 0.6 9.65 L0.3 8.7 0.0 7.8 0.0 3.15 0.3 2.3 Q0.1 0.8 1.65 0.35 L4.2 0.0 12.9 0.0 14.65 0.15 Q15.85 0.25 16.2 0.85 16.8 1.6 16.9 3.0 M8.5 3.95 Q8.5 3.1 7.6 2.5 6.8 2.0 5.8 2.0 3.0 2.0 3.0 5.4 3.0 6.75 3.55 7.7 4.25 9.0 5.8 9.0 6.9 9.0 7.55 8.45 8.15 7.85 8.65 6.4 L7.1 6.4 5.95 7.6 Q4.65 7.6 4.65 5.55 4.65 3.45 5.8 3.45 7.0 3.45 7.0 4.55 L8.5 4.55 8.5 3.95 M15.0 6.65 L15.0 6.4 13.45 6.4 13.1 7.1 Q12.7 7.6 12.25 7.6 10.95 7.6 10.95 5.55 L11.15 4.3 Q11.5 3.45 12.25 3.45 L12.95 3.65 13.45 4.55 15.0 4.55 Q14.7 3.15 14.0 2.55 13.4 2.0 12.25 2.0 10.7 2.0 10.0 3.2 9.45 4.1 9.45 5.4 9.45 9.0 12.25 9.0 13.25 9.0 13.8 8.5 L15.0 6.65" fill="#808080" fill-rule="evenodd" stroke="none"/>
    <path d="M15.0 6.65 L13.8 8.5 Q13.25 9.0 12.25 9.0 9.45 9.0 9.45 5.4 9.45 4.1 10.0 3.2 10.7 2.0 12.25 2.0 13.4 2.0 14.0 2.55 14.7 3.15 15.0 4.55 L13.45 4.55 12.95 3.65 12.25 3.45 Q11.5 3.45 11.15 4.3 L10.95 5.55 Q10.95 7.6 12.25 7.6 12.7 7.6 13.1 7.1 L13.45 6.4 15.0 6.4 15.0 6.65 M8.5 3.95 L8.5 4.55 7.0 4.55 Q7.0 3.45 5.8 3.45 4.65 3.45 4.65 5.55 4.65 7.6 5.95 7.6 L7.1 6.4 8.65 6.4 Q8.15 7.85 7.55 8.45 6.9 9.0 5.8 9.0 4.25 9.0 3.55 7.7 3.0 6.75 3.0 5.4 3.0 2.0 5.8 2.0 6.8 2.0 7.6 2.5 8.5 3.1 8.5 3.95" fill="#ffffff" fill-rule="evenodd" stroke="none"/>
  </g>
</svg>
