<?xml version="1.0" encoding="UTF-8" standalone="no"?>
<svg xmlns:xlink="http://www.w3.org/1999/xlink" height="28.0px" width="33.0px" xmlns="http://www.w3.org/2000/svg">
  <g transform="matrix(1.0, 0.0, 0.0, 1.0, 0.0, 0.0)">
    <path d="M32.0 28.0 L0.0 28.0 0.0 11.4 0.0 0.0 32.0 0.0 32.0 11.4 32.0 28.0" fill="url(#gradient0)" fill-rule="evenodd" stroke="none"/>
    <path d="M32.0 27.65 L32.0 0.2 32.0 0.0 33.0 0.0 33.0 0.2 33.0 27.65 33.0 28.0 32.0 28.0 32.0 27.65" fill="#f2f2f2" fill-rule="evenodd" stroke="none"/>
    <path d="M0.4 27.0 L31.8 27.0 32.0 27.0 32.0 28.0 31.8 28.0 0.4 28.0 0.0 28.0 0.0 27.0 0.4 27.0" fill="#eeeeee" fill-rule="evenodd" stroke="none"/>
  </g>
  <defs>
    <linearGradient gradientTransform="matrix(0.0, 0.0171, -0.0173, 0.0, 16.25, 13.85)" gradientUnits="userSpaceOnUse" id="gradient0" spreadMethod="pad" x1="-819.2" x2="819.2">
      <stop offset="0.43529411764705883" stop-color="#ffffff"/>
      <stop offset="0.5215686274509804" stop-color="#f3f3f3"/>
      <stop offset="1.0" stop-color="#d4d4d4"/>
    </linearGradient>
  </defs>
</svg>
