<?xml version="1.0" encoding="UTF-8" standalone="no"?>
<svg xmlns:xlink="http://www.w3.org/1999/xlink" height="28.0px" width="33.0px" xmlns="http://www.w3.org/2000/svg">
  <g transform="matrix(1.0, 0.0, 0.0, 1.0, 0.0, 0.0)">
    <clipPath id="clip1">
      <path d="M 0,0 L 0.0,0 L 0.0,0.0 L 0,0.0 Z"/>
    </clipPath>
    <clipPath id="clip2">
      <path d="M 0,27.0 L 0.0,27.0 L 0.0,28.0 L 0,28.0 Z"/>
    </clipPath>
    <clipPath id="clip3">
      <path d="M 32.0,0 L 33.0,0 L 33.0,0.0 L 32.0,0.0 Z"/>
    </clipPath>
    <clipPath id="clip4">
      <path d="M 32.0,27.0 L 33.0,27.0 L 33.0,28.0 L 32.0,28.0 Z"/>
    </clipPath>
    <clipPath id="clip5">
      <path d="M 0.0,0 L 32.0,0 L 32.0,0.0 L 0.0,0.0 Z"/>
    </clipPath>
    <clipPath id="clip6">
      <path d="M 0,0.0 L 0.0,0.0 L 0.0,27.0 L 0,27.0 Z"/>
    </clipPath>
    <clipPath id="clip7">
      <path d="M 0.0,27.0 L 32.0,27.0 L 32.0,28.0 L 0.0,28.0 Z"/>
    </clipPath>
    <clipPath id="clip8">
      <path d="M 32.0,0.0 L 33.0,0.0 L 33.0,27.0 L 32.0,27.0 Z"/>
    </clipPath>
    <clipPath id="clip9">
      <path d="M 0.0,0.0 L 32.0,0.0 L 32.0,27.0 L 0.0,27.0 Z"/>
    </clipPath>
    <g>
      <use clip-path="url(#clip1)" transform="matrix(1.0, 0.0, 0.0, 1.0, 0.0, 0.0)" xlink:href="#sprite0"/>
      <use clip-path="url(#clip2)" transform="matrix(1.0, 0.0, 0.0, 1.0, 0.0, 0.0)" xlink:href="#sprite0"/>
      <use clip-path="url(#clip3)" transform="matrix(1.0, 0.0, 0.0, 1.0, 0.0, 0.0)" xlink:href="#sprite0"/>
      <use clip-path="url(#clip4)" transform="matrix(1.0, 0.0, 0.0, 1.0, 0.0, 0.0)" xlink:href="#sprite0"/>
      <use clip-path="url(#clip5)" transform="matrix(1.0, 0.0, 0.0, 1.0, 0.0, 0.0)" xlink:href="#sprite0"/>
      <use clip-path="url(#clip6)" transform="matrix(1.0, 0.0, 0.0, 1.0, 0.0, 0.0)" xlink:href="#sprite0"/>
      <use clip-path="url(#clip7)" transform="matrix(1.0, 0.0, 0.0, 1.0, 0.0, 0.0)" xlink:href="#sprite0"/>
      <use clip-path="url(#clip8)" transform="matrix(1.0, 0.0, 0.0, 1.0, 0.0, 0.0)" xlink:href="#sprite0"/>
      <use clip-path="url(#clip9)" transform="matrix(1.0, 0.0, 0.0, 1.0, 0.0, 0.0)" xlink:href="#sprite0"/>
    </g>
    <use height="28.0" transform="matrix(1.0, 0.0, 0.0, 1.0, 32.0, 0.0)" width="1.0" xlink:href="#shape1"/>
  </g>
  <defs>
    <g id="sprite0" transform="matrix(1.0, 0.0, 0.0, 1.0, 0.0, 0.0)">
      <use height="28.0" transform="matrix(1.0, 0.0, 0.0, 1.0, 0.0, 0.0)" width="33.0" xlink:href="#shape0"/>
    </g>
    <g id="shape0" transform="matrix(1.0, 0.0, 0.0, 1.0, 0.0, 0.0)">
      <path d="M32.0 28.0 L0.0 28.0 0.0 11.4 0.0 0.0 32.0 0.0 32.0 11.4 32.0 28.0" fill="url(#gradient0)" fill-rule="evenodd" stroke="none"/>
      <path d="M32.0 27.65 L32.0 0.2 32.0 0.0 33.0 0.0 33.0 0.2 33.0 27.65 33.0 28.0 32.0 28.0 32.0 27.65" fill="#f2f2f2" fill-rule="evenodd" stroke="none"/>
      <path d="M0.4 27.0 L31.8 27.0 32.0 27.0 32.0 28.0 31.8 28.0 0.4 28.0 0.0 28.0 0.0 27.0 0.4 27.0" fill="#eeeeee" fill-rule="evenodd" stroke="none"/>
    </g>
    <linearGradient gradientTransform="matrix(0.0, 0.0171, -0.0173, 0.0, 16.25, 13.85)" gradientUnits="userSpaceOnUse" id="gradient0" spreadMethod="pad" x1="-819.2" x2="819.2">
      <stop offset="0.43529411764705883" stop-color="#ffffff"/>
      <stop offset="0.5215686274509804" stop-color="#f3f3f3"/>
      <stop offset="1.0" stop-color="#d4d4d4"/>
    </linearGradient>
    <g id="shape1" transform="matrix(1.0, 0.0, 0.0, 1.0, -32.0, 0.0)">
      <path d="M32.0 28.0 L32.0 27.6 32.0 0.1 32.0 0.0 33.0 0.0 33.0 0.1 33.0 27.6 33.0 28.0 32.0 28.0" fill="#d9d9d9" fill-rule="evenodd" stroke="none"/>
    </g>
  </defs>
</svg>
