<?xml version="1.0" encoding="UTF-8" standalone="no"?>
<svg xmlns:xlink="http://www.w3.org/1999/xlink" height="34.0px" width="30.0px" xmlns="http://www.w3.org/2000/svg">
  <g transform="matrix(1.0, 0.0, 0.0, 1.0, 0.0, 0.0)">
    <use height="34.0" transform="matrix(1.0, 0.0, 0.0, 1.0, 0.0, 0.0)" width="30.0" xlink:href="#shape0"/>
  </g>
  <defs>
    <g id="shape0" transform="matrix(1.0, 0.0, 0.0, 1.0, 0.0, 0.0)">
      <path d="M7.7 32.0 L0.0 32.0 0.0 0.0 7.7 0.0 23.25 0.0 30.0 0.0 30.0 32.0 23.25 32.0 7.7 32.0" fill="url(#gradient0)" fill-rule="evenodd" stroke="none"/>
      <path d="M29.95 34.0 L23.25 34.0 7.7 34.0 0.0 34.0 0.0 33.0 7.7 33.0 23.25 33.0 29.95 33.0 29.95 34.0" fill="#cecece" fill-rule="evenodd" stroke="none"/>
      <path d="M30.0 4.0 L23.3 4.0 7.7 4.0 0.0 4.0 0.0 3.0 7.7 3.0 23.3 3.0 30.0 3.0 30.0 4.0" fill="#cccccc" fill-rule="evenodd" stroke="none"/>
    </g>
    <linearGradient gradientTransform="matrix(0.0, 0.0193, -0.0165, 0.0, 15.0, 16.0)" gradientUnits="userSpaceOnUse" id="gradient0" spreadMethod="pad" x1="-819.2" x2="819.2">
      <stop offset="0.0" stop-color="#c4c4c4"/>
      <stop offset="0.06666666666666667" stop-color="#f9f9f9"/>
      <stop offset="0.10980392156862745" stop-color="#f5f5f5"/>
      <stop offset="0.12549019607843137" stop-color="#d5d5d5"/>
      <stop offset="0.5686274509803921" stop-color="#f3f3f3"/>
      <stop offset="1.0" stop-color="#ffffff"/>
    </linearGradient>
  </defs>
</svg>
