<?xml version="1.0" encoding="UTF-8" standalone="no"?>
<svg xmlns:xlink="http://www.w3.org/1999/xlink" height="29.0px" width="33.0px" xmlns="http://www.w3.org/2000/svg">
  <g transform="matrix(1.0, 0.0, 0.0, 1.0, 0.0, 0.0)">
    <path d="M0.0 0.0 L32.0 0.0 32.0 12.45 32.0 28.0 0.0 28.0 0.0 12.45 0.0 0.0" fill="url(#gradient0)" fill-rule="evenodd" stroke="none"/>
    <path d="M32.0 27.85 L32.0 0.3 32.0 0.0 33.0 0.0 33.0 0.3 33.0 27.85 33.0 28.0 32.0 28.0 32.0 27.85" fill="#f2f2f2" fill-rule="evenodd" stroke="none"/>
    <path d="M0.2 28.0 L31.7 28.0 32.0 28.0 32.0 29.0 31.7 29.0 0.2 29.0 0.0 29.0 0.0 28.0 0.2 28.0" fill="#eeeeee" fill-rule="evenodd" stroke="none"/>
  </g>
  <defs>
    <linearGradient gradientTransform="matrix(0.0, 0.0193, -0.0173, 0.0, 16.0, 15.8)" gradientUnits="userSpaceOnUse" id="gradient0" spreadMethod="pad" x1="-819.2" x2="819.2">
      <stop offset="0.4392156862745098" stop-color="#ffffff"/>
      <stop offset="0.4588235294117647" stop-color="#eeeeee"/>
      <stop offset="1.0" stop-color="#bfbfbf"/>
    </linearGradient>
  </defs>
</svg>
