<svg xmlns:xlink="http://www.w3.org/1999/xlink" height="28" width="33" xmlns="http://www.w3.org/2000/svg"><clipPath id="a"><path d="M0 0z"/></clipPath><clipPath id="c"><path d="M0 27v1z"/></clipPath><clipPath id="d"><path d="M32 0h1-1z"/></clipPath><clipPath id="e"><path d="M32 27h1v1h-1z"/></clipPath><clipPath id="f"><path d="M0 0h32H0z"/></clipPath><clipPath id="g"><path d="M0 0v27z"/></clipPath><clipPath id="h"><path d="M0 27h32v1H0z"/></clipPath><clipPath id="i"><path d="M32 0h1v27h-1z"/></clipPath><clipPath id="j"><path d="M0 0h32v27H0z"/></clipPath><use clip-path="url(#a)" xlink:href="#b"/><use clip-path="url(#c)" xlink:href="#b"/><use clip-path="url(#d)" xlink:href="#b"/><use clip-path="url(#e)" xlink:href="#b"/><use clip-path="url(#f)" xlink:href="#b"/><use clip-path="url(#g)" xlink:href="#b"/><use clip-path="url(#h)" xlink:href="#b"/><use clip-path="url(#i)" xlink:href="#b"/><use clip-path="url(#j)" xlink:href="#b"/><use height="28" transform="translate(32)" width="1" xlink:href="#k"/><defs><linearGradient gradientTransform="matrix(0 .0171 -.0173 0 16.3 13.8)" gradientUnits="userSpaceOnUse" id="m" spreadMethod="pad" x1="-819.2" x2="819.2"><stop offset=".4" stop-color="#fff"/><stop offset=".5" stop-color="#f3f3f3"/><stop offset="1" stop-color="#d4d4d4"/></linearGradient><path d="M32 28V0h1v28h-1" fill="#d9d9d9" fill-rule="evenodd" transform="translate(-32)" id="k"/><use height="28" width="33" xlink:href="#l" id="b"/><g id="l" fill-rule="evenodd"><path d="M32 28H0V0h32v28" fill="url(#m)"/><path d="M32 27.6V0h1v28h-1v-.4" fill="#f2f2f2"/><path d="M.4 27H32v1H0v-1h.4" fill="#eee"/></g></defs></svg>