<?xml version="1.0" encoding="UTF-8" standalone="no"?>
<svg xmlns:xlink="http://www.w3.org/1999/xlink" height="15.1px" width="16.0px" xmlns="http://www.w3.org/2000/svg">
  <g transform="matrix(1.0, 0.0, 0.0, 1.0, -1.0, -1.0)">
    <path d="M3.1 12.3 L1.0 10.1 6.9 10.45 6.75 16.1 4.65 13.9 2.65 16.0 1.15 14.35 3.1 12.3 M3.2 4.8 L1.15 2.8 2.75 1.25 4.75 3.25 6.9 1.1 6.6 7.1 1.0 6.95 3.2 4.8 M11.2 10.1 L16.75 10.3 14.6 12.45 16.65 14.45 15.0 16.0 13.0 14.0 10.85 16.1 11.2 10.1 M16.9 2.75 L14.9 4.8 17.0 7.0 10.9 6.65 11.1 1.0 13.25 3.2 15.25 1.1 16.9 2.75" fill="url(#gradient0)" fill-rule="evenodd" stroke="none"/>
  </g>
  <defs>
    <linearGradient gradientTransform="matrix(3.0E-4, 0.0104, -0.005, 1.0E-4, 4.85, 8.65)" gradientUnits="userSpaceOnUse" id="gradient0" spreadMethod="pad" x1="-819.2" x2="819.2">
      <stop offset="0.00392156862745098" stop-color="#787878"/>
      <stop offset="0.39215686274509803" stop-color="#484848"/>
    </linearGradient>
  </defs>
</svg>
