<svg height="15" width="16" xmlns="http://www.w3.org/2000/svg"><path d="M5.8 4.4 4.2 5.9l-2-2L0 6.2l.3-6 5.6.1-2.2 2.2 2 2M.3 9.1l2 2.2 2-2.1 1.5 1.7-1.9 2L6 15.1l-5.9-.3V9m9.8 1.7 1.7-1.6 2 2L15.8 9l-.4 6-5.6-.2 2.2-2.2-2-2m2-8.5L9.9 0l6.1.3-.2 5.7-2.2-2.2-2 2.1L10 4.2l2-2" fill="url(#a)" fill-rule="evenodd"/><defs><linearGradient gradientTransform="matrix(.0002 .0092 -.009 .0002 8 7.6)" gradientUnits="userSpaceOnUse" id="a" spreadMethod="pad" x1="-819.2" x2="819.2"><stop offset="0" stop-color="#f09f9f"/><stop offset=".4" stop-color="#bf1e1e"/><stop offset="1" stop-color="#df2929"/></linearGradient></defs></svg>
