<svg height="15" width="16" xmlns="http://www.w3.org/2000/svg"><path d="M3.1 12.3 1 10.1l5.9.3-.2 5.7-2-2.2-2 2.1L1 14.3l2-2m.1-7.5-2-2 1.6-1.5 2 2L6.8 1l-.3 6H1l2.2-2.2m8 5.3 5.6.2-2.2 2.1 2 2L15 16l-2-2-2.2 2.1.4-6m5.7-7.3-2 2L17 7l-6.1-.3.2-5.7 2.2 2.2 2-2.1 1.6 1.6" fill="url(#a)" fill-rule="evenodd" transform="translate(-1 -1)"/><defs><linearGradient gradientTransform="matrix(.0003 .0104 -.005 .0001 4.8 8.7)" gradientUnits="userSpaceOnUse" id="a" spreadMethod="pad" x1="-819.2" x2="819.2"><stop offset="0" stop-color="#787878"/><stop offset=".4" stop-color="#484848"/></linearGradient></defs></svg>
