<?xml version="1.0" encoding="UTF-8" standalone="no"?>
<svg xmlns:xlink="http://www.w3.org/1999/xlink" height="15.1px" width="16.0px" xmlns="http://www.w3.org/2000/svg">
  <g transform="matrix(1.0, 0.0, 0.0, 1.0, -1.0, -1.0)">
    <path d="M6.9 1.25 L4.7 3.4 6.75 5.4 5.15 6.95 3.15 4.95 1.0 7.1 1.3 1.1 6.9 1.25 M1.15 10.1 L3.25 12.3 5.25 10.2 6.75 11.85 4.8 13.9 6.9 16.1 1.0 15.75 1.15 10.1 M10.95 11.75 L12.6 10.2 14.6 12.2 16.75 10.1 16.4 16.1 10.85 15.9 13.0 13.75 10.95 11.75 M13.0 3.2 L10.9 1.0 17.0 1.35 16.8 7.0 14.65 4.8 12.65 6.9 11.0 5.25 13.0 3.2" fill="url(#gradient0)" fill-rule="evenodd" stroke="none"/>
  </g>
  <defs>
    <linearGradient gradientTransform="matrix(2.0E-4, 0.0092, -0.009, 2.0E-4, 8.95, 8.6)" gradientUnits="userSpaceOnUse" id="gradient0" spreadMethod="pad" x1="-819.2" x2="819.2">
      <stop offset="0.00392156862745098" stop-color="#787878"/>
      <stop offset="0.39215686274509803" stop-color="#484848"/>
    </linearGradient>
  </defs>
</svg>
