<?xml version="1.0" encoding="UTF-8" standalone="no"?>
<svg xmlns:xlink="http://www.w3.org/1999/xlink" height="15.1px" width="16.0px" xmlns="http://www.w3.org/2000/svg">
  <g transform="matrix(1.0, 0.0, 0.0, 1.0, 0.0, 0.0)">
    <path d="M2.1 11.3 L0.0 9.1 5.9 9.45 5.75 15.1 3.65 12.9 1.65 15.0 0.15 13.35 2.1 11.3 M5.9 0.1 L5.6 6.1 0.0 5.95 2.2 3.8 0.15 1.8 1.75 0.25 3.75 2.25 5.9 0.1 M10.2 9.1 L15.75 9.3 13.6 11.45 15.65 13.45 14.0 15.0 12.0 13.0 9.85 15.1 10.2 9.1 M12.25 2.2 L14.25 0.1 15.9 1.75 13.9 3.8 16.0 6.0 9.9 5.65 10.1 0.0 12.25 2.2" fill="url(#gradient0)" fill-rule="evenodd" stroke="none"/>
  </g>
  <defs>
    <linearGradient gradientTransform="matrix(-1.0E-4, 0.0107, -0.0037, 0.0, -1.5, 7.7)" gradientUnits="userSpaceOnUse" id="gradient0" spreadMethod="pad" x1="-819.2" x2="819.2">
      <stop offset="0.0" stop-color="#f09f9f"/>
      <stop offset="0.39215686274509803" stop-color="#bf1e1e"/>
      <stop offset="0.9921568627450981" stop-color="#df2929"/>
    </linearGradient>
  </defs>
</svg>
