<svg height="15" width="16" xmlns="http://www.w3.org/2000/svg"><path d="M6.9 1.3 4.7 3.4l2 2-1.5 1.5-2-2L1 7.2l.3-6 5.6.1m-5.8 8.9 2.1 2.2 2-2.1L6.7 12l-1.9 2 2.1 2.2-5.9-.4.1-5.6m9.8 1.7 1.7-1.6 2 2 2.2-2.1-.4 6-5.5-.2 2.1-2.2-2-2m2-8.5L10.9 1l6.1.4-.2 5.6-2.2-2.2-2 2.1L11 5.2l2-2" fill="url(#a)" fill-rule="evenodd" transform="translate(-1 -1)"/><defs><linearGradient gradientTransform="matrix(.0002 .0092 -.009 .0002 9 8.6)" gradientUnits="userSpaceOnUse" id="a" spreadMethod="pad" x1="-819.2" x2="819.2"><stop offset="0" stop-color="#787878"/><stop offset=".4" stop-color="#484848"/></linearGradient></defs></svg>
