<?xml version="1.0" encoding="UTF-8" standalone="no"?>
<svg xmlns:xlink="http://www.w3.org/1999/xlink" height="15.1px" width="16.0px" xmlns="http://www.w3.org/2000/svg">
  <g transform="matrix(1.0, 0.0, 0.0, 1.0, 0.0, 0.0)">
    <path d="M5.75 4.4 L4.15 5.95 2.15 3.95 0.0 6.1 0.3 0.1 5.9 0.25 3.7 2.4 5.75 4.4 M0.15 9.1 L2.25 11.3 4.25 9.2 5.75 10.85 3.8 12.9 5.9 15.1 0.0 14.75 0.15 9.1 M9.95 10.75 L11.6 9.2 13.6 11.2 15.75 9.1 15.4 15.1 9.85 14.9 12.0 12.75 9.95 10.75 M12.0 2.2 L9.9 0.0 16.0 0.35 15.8 6.0 13.65 3.8 11.65 5.9 10.0 4.25 12.0 2.2" fill="url(#gradient0)" fill-rule="evenodd" stroke="none"/>
  </g>
  <defs>
    <linearGradient gradientTransform="matrix(2.0E-4, 0.0092, -0.009, 2.0E-4, 7.95, 7.6)" gradientUnits="userSpaceOnUse" id="gradient0" spreadMethod="pad" x1="-819.2" x2="819.2">
      <stop offset="0.0" stop-color="#f09f9f"/>
      <stop offset="0.39215686274509803" stop-color="#bf1e1e"/>
      <stop offset="0.9921568627450981" stop-color="#df2929"/>
    </linearGradient>
  </defs>
</svg>
