<svg height="15" width="16" xmlns="http://www.w3.org/2000/svg"><path d="M2.1 11.3 0 9.1l5.9.3-.2 5.7-2-2.2-2 2.1L0 13.3l2-2M5.9.1l-.3 6L0 6l2.2-2.2-2-2L1.8.2l2 2 2-2.1m4.3 9 5.6.2-2.2 2.1 2 2L14 15l-2-2-2.2 2.1.4-6m2-6.9 2-2.1L16 1.7l-2 2.1L16 6l-6.1-.3.2-5.7 2.2 2.2" fill="url(#a)" fill-rule="evenodd"/><defs><linearGradient gradientTransform="matrix(-.0001 .0107 -.0037 0 -1.5 7.7)" gradientUnits="userSpaceOnUse" id="a" spreadMethod="pad" x1="-819.2" x2="819.2"><stop offset="0" stop-color="#f09f9f"/><stop offset=".4" stop-color="#bf1e1e"/><stop offset="1" stop-color="#df2929"/></linearGradient></defs></svg>
