<svg xmlns:xlink="http://www.w3.org/1999/xlink" height="16" width="16" xmlns="http://www.w3.org/2000/svg"><g transform="translate(8)"><use height="16" transform="translate(-8)" width="16" xlink:href="#a"/><use height="12" transform="translate(-6 2)" width="12" xlink:href="#b"/><use height="7" transform="translate(-3 4.5)" width="6" xlink:href="#c"/><use height="12.05" transform="translate(-6 2)" width="12.05" xlink:href="#d"/></g><defs><path d="M8 16q-3.35 0-5.7-2.35Q0 11.35 0 8q0-3.35 2.3-5.7Q4.65 0 8 0t5.65 2.3Q16 4.65 16 8t-2.35 5.65Q11.35 16 8 16" fill="#fff" fill-rule="evenodd" id="e"/><path d="M0 14q-2.5 0-4.3-1.8Q-6 10.5-6 8t1.7-4.3Q-2.5 2 0 2t4.2 1.7Q6 5.5 6 8t-1.8 4.2Q2.5 14 0 14" fill="url(#f)" fill-rule="evenodd" transform="translate(6 -2)" id="b"/><path d="M3.95 4.1Q2.35 2.5.05 2.5q-2.35 0-3.95 1.6t-1.6 3.95q0 2.3 1.6 3.9t3.95 1.6q2.3 0 3.9-1.6t1.6-3.9q0-2.35-1.6-3.95M.05 2q2.5 0 4.25 1.75t1.75 4.3q0 2.5-1.75 4.25T.05 14.05q-2.55 0-4.3-1.75T-6 8.05q0-2.55 1.75-4.3T.05 2" fill="url(#g)" fill-rule="evenodd" transform="translate(6 -2)" id="d"/><linearGradient gradientTransform="rotate(-90 4 4.05) scale(.0073)" gradientUnits="userSpaceOnUse" id="f" spreadMethod="pad" x1="-819.2" x2="819.2"><stop offset="0" stop-color="#fff"/><stop offset="1" stop-color="#adadad"/></linearGradient><linearGradient gradientTransform="matrix(0 -.0073 .0073 0 .1 8)" gradientUnits="userSpaceOnUse" id="g" spreadMethod="pad" x1="-819.2" x2="819.2"><stop offset=".365" stop-color="#555"/><stop offset=".482" stop-color="#aeaeae"/></linearGradient><use height="16" width="16" xlink:href="#e" id="a"/><g id="c" fill-rule="evenodd"><path d="m-3 5 .15-.35.35-.15.35.15L-2 5v6l-.15.35-.35.15-.35-.15L-3 11V5M-.15 4.65 0 5v6l-.15.35-.35.15-.35-.15L-1 11V5l.15-.35q.15-.15.35-.15.2 0 .35.15" fill="#fff" transform="translate(3 -4.5)"/><path d="m-2 5 .15-.35.35-.15q.2 0 .35.15Q-1 4.8-1 5v6l-.15.35-.35.15-.35-.15L-2 11V5M0 5l.15-.35Q.3 4.5.5 4.5q.2 0 .35.15L1 5v6l-.15.35-.35.15-.35-.15L0 11V5" fill="#bfbfbf" transform="translate(3 -4.5)"/><path d="M1 5q0-.2.15-.35.15-.15.35-.15l.35.15L2 5v6l-.15.35-.35.15-.35-.15L1 11V5" fill="#fff" transform="translate(3 -4.5)"/><path d="m2 5 .15-.35.35-.15.35.15L3 5v6l-.15.35-.35.15-.35-.15L2 11V5" fill="#bfbfbf" transform="translate(3 -4.5)"/></g></defs></svg>