<?xml version="1.0" encoding="UTF-8" standalone="no"?>
<svg xmlns:xlink="http://www.w3.org/1999/xlink" height="22.05px" width="30.0px" xmlns="http://www.w3.org/2000/svg">
  <g transform="matrix(1.0, 0.0, 0.0, 1.0, 0.0, 0.05)">
    <use height="22.0" transform="matrix(1.0, 0.0, 0.0, 1.0, 0.0, 0.0)" width="30.0" xlink:href="#shape0"/>
    <use height="14.0" transform="matrix(1.0, 0.0, 0.0, 1.0, 4.0, 3.9)" width="8.95" xlink:href="#sprite0"/>
    <use height="7.25" transform="matrix(1.0, 0.0, 0.0, 1.0, 15.9, 7.05)" width="6.05" xlink:href="#shape2"/>
    <use height="6.0" transform="matrix(1.0, 0.0, 0.0, 1.0, 25.0, -0.05)" width="4.0" xlink:href="#shape3"/>
  </g>
  <defs>
    <g id="shape0" transform="matrix(1.0, 0.0, 0.0, 1.0, 0.0, 0.0)">
      <path d="M30.0 0.0 L30.0 22.0 0.0 22.0 0.0 0.0 30.0 0.0" fill="#c0c9e9" fill-opacity="0.0" fill-rule="evenodd" stroke="none"/>
    </g>
    <g id="sprite0" transform="matrix(1.0, 0.0, 0.0, 1.0, 0.0, 0.0)">
      <use height="14.0" transform="matrix(1.0, 0.0, 0.0, 1.0, 0.0, 0.0)" width="8.95" xlink:href="#shape1"/>
    </g>
    <g id="shape1" transform="matrix(1.0, 0.0, 0.0, 1.0, 0.0, 0.0)">
      <path d="M8.45 0.05 Q8.95 0.3 8.95 1.25 L8.95 12.75 Q8.95 13.7 8.45 13.95 L7.85 14.0 3.1 9.75 3.1 4.4 7.85 0.0 8.45 0.05 M1.05 4.2 L2.4 4.2 2.4 9.85 1.05 9.85 0.0 7.05 1.05 4.2" fill="url(#gradient0)" fill-rule="evenodd" stroke="none"/>
    </g>
    <linearGradient gradientTransform="matrix(0.0, 0.0081, -0.0034, 0.0, 1.3, 7.25)" gradientUnits="userSpaceOnUse" id="gradient0" spreadMethod="pad" x1="-819.2" x2="819.2">
      <stop offset="0.0" stop-color="#f09f9f"/>
      <stop offset="0.39215686274509803" stop-color="#bf1e1e"/>
      <stop offset="0.9921568627450981" stop-color="#df2929"/>
    </linearGradient>
    <g id="shape2" transform="matrix(1.0, 0.0, 0.0, 1.0, -15.9, -7.05)">
      <path d="M20.95 8.05 L16.9 13.3" fill="none" stroke="#cd0707" stroke-linecap="round" stroke-linejoin="round" stroke-width="2.0"/>
      <path d="M16.9 8.05 L20.95 13.3" fill="none" stroke="#cd0707" stroke-linecap="round" stroke-linejoin="round" stroke-width="2.0"/>
    </g>
    <g id="shape3" transform="matrix(1.0, 0.0, 0.0, 1.0, 0.0, 0.0)">
      <path d="M1.0 1.0 L4.0 3.5 1.0 6.0 1.0 1.0" fill="#ffffff" fill-opacity="0.6" fill-rule="evenodd" stroke="none"/>
      <path d="M0.0 0.0 L3.0 2.5 0.0 5.0 0.0 0.0" fill="#ba1010" fill-rule="evenodd" stroke="none"/>
    </g>
  </defs>
</svg>
