<?xml version="1.0" encoding="UTF-8" standalone="no"?>
<svg xmlns:xlink="http://www.w3.org/1999/xlink" height="22.05px" width="30.0px" xmlns="http://www.w3.org/2000/svg">
  <g transform="matrix(1.0, 0.0, 0.0, 1.0, 0.0, 0.05)">
    <use height="22.0" transform="matrix(1.0, 0.0, 0.0, 1.0, 0.0, 0.0)" width="30.0" xlink:href="#shape0"/>
    <use height="9.3" transform="matrix(1.0, 0.0, 0.0, 1.0, 16.4, 6.2)" width="2.45" xlink:href="#shape1"/>
    <use height="3.0" transform="matrix(1.0, 0.0, 0.0, 1.0, 14.9, 9.25)" width="1.35" xlink:href="#shape2"/>
    <use height="6.0" transform="matrix(1.0, 0.0, 0.0, 1.0, 25.0, -0.05)" width="4.0" xlink:href="#shape3"/>
  </g>
  <defs>
    <g id="shape0" transform="matrix(1.0, 0.0, 0.0, 1.0, 0.0, 0.0)">
      <path d="M30.0 0.0 L30.0 22.0 0.0 22.0 0.0 0.0 30.0 0.0" fill="#c0c9e9" fill-opacity="0.0" fill-rule="evenodd" stroke="none"/>
      <path d="M12.95 5.15 L12.95 16.65 Q12.95 17.6 12.45 17.85 L11.85 17.9 7.1 13.65 7.1 8.3 11.85 3.9 12.45 3.95 Q12.95 4.2 12.95 5.15 M4.0 10.95 L5.05 8.1 6.4 8.1 6.4 13.75 5.05 13.75 4.0 10.95" fill="url(#gradient0)" fill-rule="evenodd" stroke="none"/>
    </g>
    <linearGradient gradientTransform="matrix(0.0, 0.0081, -0.0034, 0.0, 5.3, 11.15)" gradientUnits="userSpaceOnUse" id="gradient0" spreadMethod="pad" x1="-819.2" x2="819.2">
      <stop offset="0.0" stop-color="#757575"/>
      <stop offset="0.39215686274509803" stop-color="#868686"/>
      <stop offset="0.9921568627450981" stop-color="#2c2c2c"/>
    </linearGradient>
    <g id="shape1" transform="matrix(1.0, 0.0, 0.0, 1.0, -16.4, -6.2)">
      <path d="M16.9 6.7 L18.15 9.2 Q18.95 12.2 16.9 15.0" fill="none" stroke="#4a4a4a" stroke-linecap="round" stroke-linejoin="round" stroke-width="1.0"/>
    </g>
    <g id="shape2" transform="matrix(1.0, 0.0, 0.0, 1.0, -14.9, -9.25)">
      <path d="M15.85 9.65 Q16.25 10.1 16.25 10.75 16.25 11.35 15.85 11.8 15.45 12.25 14.9 12.25 L14.9 9.25 Q15.35 9.25 15.7 9.5 L15.85 9.65" fill="#4a4a4a" fill-rule="evenodd" stroke="none"/>
    </g>
    <g id="shape3" transform="matrix(1.0, 0.0, 0.0, 1.0, 0.0, 0.0)">
      <path d="M1.0 1.0 L4.0 3.5 1.0 6.0 1.0 1.0" fill="#ffffff" fill-opacity="0.6" fill-rule="evenodd" stroke="none"/>
      <path d="M0.0 0.0 L3.0 2.5 0.0 5.0 0.0 0.0" fill="#555555" fill-rule="evenodd" stroke="none"/>
    </g>
  </defs>
</svg>
