<svg xmlns:xlink="http://www.w3.org/1999/xlink" height="22" width="30" xmlns="http://www.w3.org/2000/svg"><use height="22" width="30" xlink:href="#a"/><use height="3" transform="translate(14.9 9.3)" width="1.4" xlink:href="#b"/><use height="6" transform="translate(25)" width="4" xlink:href="#c"/><defs><g id="a" fill-rule="evenodd"><path d="M30 0v22H0V0h30" fill="#c0c9e9" fill-opacity="0"/><path d="M13 5.2v11.4q0 1-.6 1.3h-.6l-4.7-4.2V8.3l4.8-4.4h.5q.5.3.5 1.3M4 10.9l1-2.8h1.4v5.7H5l-1-2.9" fill="url(#d)"/></g><g id="c" fill-rule="evenodd"><path d="m1 1 3 2.5L1 6V1" fill="#fff" fill-opacity=".6"/><path d="m0 0 3 2.5L0 5V0" fill="#555"/></g><linearGradient gradientTransform="matrix(0 .0081 -.0034 0 5.3 11.2)" gradientUnits="userSpaceOnUse" id="d" spreadMethod="pad" x1="-819.2" x2="819.2"><stop offset="0" stop-color="#757575"/><stop offset=".4" stop-color="#868686"/><stop offset="1" stop-color="#2c2c2c"/></linearGradient><path d="M15.8 9.7q.4.4.4 1 0 .7-.3 1.1-.5.4-1 .4v-3q.4 0 .8.3l.2.2" fill="#4a4a4a" fill-rule="evenodd" transform="translate(-14.9 -9.3)" id="b"/></defs></svg>
