<svg xmlns:xlink="http://www.w3.org/1999/xlink" height="22" width="30" xmlns="http://www.w3.org/2000/svg"><use height="22" width="30" xlink:href="#a"/><use height="14" transform="translate(4 3.9)" width="8.9" xlink:href="#b"/><use height="9.3" transform="translate(14.9 6.2)" width="4" xlink:href="#c"/><use height="2.7" transform="matrix(1 0 0 1.1111 14.9 9.2)" width="1.4" xlink:href="#d"/><use height="6" transform="translate(25)" width="4" xlink:href="#e"/><defs><path d="M30 0v22H0V0h30" fill="#c0c9e9" fill-opacity="0" fill-rule="evenodd" id="a"/><path d="M8.4 0q.5.3.5 1.3v11.4q0 1-.5 1.3h-.6L3.1 9.7V4.5L7.9 0h.5M1 4.3h1.4v5.6H1.1L0 7l1-2.8" fill="url(#f)" fill-rule="evenodd" id="g"/><path d="M15.8 9.7q.4.4.4.9 0 .6-.3 1-.5.3-1 .3V9.3q.4 0 .8.3l.2.2" fill="#c11e1e" fill-rule="evenodd" transform="translate(-14.9 -9.3)" id="d"/><g id="c"><path d="m16.9 6.7 1.3 2.5q.8 3-1.3 5.8" fill="none" stroke="#c11e1e" stroke-linecap="round" stroke-linejoin="round" transform="translate(-14.9 -6.2)"/><path d="M15.8 9.7q.4.4.4.9 0 .6-.3 1-.5.3-1 .3V9.3q.4 0 .8.3l.2.2" fill="#c11e1e" fill-rule="evenodd" transform="translate(-14.9 -6.2)"/></g><g id="e" fill-rule="evenodd"><path d="m1 1 3 2.5L1 6V1" fill="#fff" fill-opacity=".6"/><path d="m0 0 3 2.5L0 5V0" fill="#ba1010"/></g><linearGradient gradientTransform="matrix(0 .0081 -.0034 0 1.3 7.3)" gradientUnits="userSpaceOnUse" id="f" spreadMethod="pad" x1="-819.2" x2="819.2"><stop offset="0" stop-color="#f09f9f"/><stop offset=".4" stop-color="#bf1e1e"/><stop offset="1" stop-color="#df2929"/></linearGradient><use height="14" width="8.9" xlink:href="#g" id="b"/></defs></svg>
