<svg xmlns:xlink="http://www.w3.org/1999/xlink" height="22.1" width="30" xmlns="http://www.w3.org/2000/svg"><use height="22" width="30" xlink:href="#a"/><use height="14" transform="translate(4 3.9)" width="8.9" xlink:href="#b"/><use height="7.3" transform="translate(15.9 7)" width="6" xlink:href="#c"/><use height="6" transform="translate(25)" width="4" xlink:href="#d"/><defs><path d="M30 0v22H0V0h30" fill="#c0c9e9" fill-opacity="0" fill-rule="evenodd" id="a"/><path d="M8.4 0q.5.3.5 1.3v11.4q0 1-.5 1.3h-.6L3.1 9.7V4.5L7.9 0h.5M1 4.3h1.4v5.6H1.1L0 7l1-2.8" fill="url(#f)" fill-rule="evenodd" id="e"/><g id="c" fill="none" stroke="#cd0707" stroke-linecap="round" stroke-linejoin="round" stroke-width="2"><path d="m21 8-4.1 5.3M16.9 8l4 5.3" transform="translate(-15.9 -7)"/></g><g id="d" fill-rule="evenodd"><path d="m1 1 3 2.5L1 6V1" fill="#fff" fill-opacity=".6"/><path d="m0 0 3 2.5L0 5V0" fill="#ba1010"/></g><linearGradient gradientTransform="matrix(0 .0081 -.0034 0 1.3 7.3)" gradientUnits="userSpaceOnUse" id="f" spreadMethod="pad" x1="-819.2" x2="819.2"><stop offset="0" stop-color="#f09f9f"/><stop offset=".4" stop-color="#bf1e1e"/><stop offset="1" stop-color="#df2929"/></linearGradient><use height="14" width="8.9" xlink:href="#e" id="b"/></defs></svg>