<svg xmlns:xlink="http://www.w3.org/1999/xlink" height="22.1" width="30" xmlns="http://www.w3.org/2000/svg"><use height="22" width="30" xlink:href="#a"/><use height="7.3" transform="translate(15.9 7)" width="6" xlink:href="#b"/><use height="6" transform="translate(25)" width="4" xlink:href="#c"/><defs><g id="a" fill-rule="evenodd"><path d="M30 0v22H0V0h30" fill="#c0c9e9" fill-opacity="0"/><path d="M13 5.2v11.4q0 1-.6 1.3h-.6l-4.7-4.2V8.3l4.8-4.4h.5q.5.3.5 1.3M4 10.9l1-2.8h1.4v5.7H5l-1-2.9" fill="url(#d)"/></g><g id="b" fill="none" stroke="#cd0707" stroke-linecap="round" stroke-linejoin="round" stroke-width="2"><path d="m21 8-4.1 5.3M16.9 8l4 5.3" transform="translate(-15.9 -7)"/></g><g id="c" fill-rule="evenodd"><path d="m1 1 3 2.5L1 6V1" fill="#fff" fill-opacity=".6"/><path d="m0 0 3 2.5L0 5V0" fill="#555"/></g><linearGradient gradientTransform="matrix(0 .0081 -.0034 0 5.3 11.2)" gradientUnits="userSpaceOnUse" id="d" spreadMethod="pad" x1="-819.2" x2="819.2"><stop offset="0" stop-color="#757575"/><stop offset=".4" stop-color="#868686"/><stop offset="1" stop-color="#2c2c2c"/></linearGradient></defs></svg>